<svg xmlns="http://www.w3.org/2000/svg" version="1.1" xmlns:xlink="http://www.w3.org/1999/xlink" xmlns:svgjs="http://svgjs.dev/svgjs" width="1000" height="1000" viewBox="0 0 1000 1000"><rect width="1000" height="1000" fill="#ffffff"></rect><g transform="matrix(0.7,0,0,0.7,149.57575759878432,423.62824155722603)"><svg viewBox="0 0 396 86" data-background-color="#ffffff" preserveAspectRatio="xMidYMid meet" height="217" width="1000" xmlns="http://www.w3.org/2000/svg" xmlns:xlink="http://www.w3.org/1999/xlink"><g id="tight-bounds" transform="matrix(1,0,0,1,0.24000001302658802,0.23878361594674402)"><svg viewBox="0 0 395.52 85.52243280223259" height="85.52243280223259" width="395.52"><g><svg viewBox="0 0 521.5007498444323 112.76297743447708" height="85.52243280223259" width="395.52"><g transform="matrix(1,0,0,1,0,15.584463596226577)"><svg viewBox="0 0 395.52 81.59405024202393" height="81.59405024202393" width="395.52"><g id="textblocktransform"><svg viewBox="0 0 395.52 81.59405024202393" height="81.59405024202393" width="395.52" id="textblock"><g><svg viewBox="0 0 395.52 56.01294797687861" height="56.01294797687861" width="395.52"><g transform="matrix(1,0,0,1,0,0)"><svg width="395.52" viewBox="2.7300000190734863 -30.739999771118164 219.61000061035156 31.110000610351562" height="56.01294797687861" data-palette-color="#4d331f"><g class="undefined-text-0" data-fill-palette-color="primary" id="text-0"><path d="M5.35 0.12Q4.03 0.12 3.38-0.24 2.73-0.61 2.73-1.29L2.73-1.29 2.73-29.08Q2.73-30.52 5.35-30.52L5.35-30.52 6.86-30.52Q8.2-30.52 8.83-30.15 9.45-29.79 9.45-29.08L9.45-29.08 9.45-1.29Q9.45 0.12 6.86 0.12L6.86 0.12 5.35 0.12ZM17.87 0.07Q15.26 0.07 15.26-1.29L15.26-1.29 15.26-29.08Q15.26-29.79 15.89-30.14 16.53-30.49 17.87-30.49L17.87-30.49 20.16-30.49Q22.24-30.49 22.87-29.3L22.87-29.3 30.17-16.33 30.54-15.7 30.91-16.46 38.25-29.3Q38.91-30.49 40.99-30.49L40.99-30.49 43.26-30.49Q45.87-30.49 45.87-29.08L45.87-29.08 45.87-1.29Q45.87 0.07 43.26 0.07L43.26 0.07 41.99 0.07Q39.38 0.07 39.38-1.29L39.38-1.29 39.38-19.29 39.21-19.34 32.91-8.08Q32.35-7.25 31.17-7.25L31.17-7.25 29.93-7.25Q29.32-7.25 28.9-7.46 28.49-7.67 28.2-8.08L28.2-8.08 21.87-19.34 21.7-19.29 21.7-1.29Q21.7 0.07 19.11 0.07L19.11 0.07 17.87 0.07ZM51.48 0.07Q48.82 0.07 48.82-0.88L48.82-0.88Q48.82-1.15 48.99-1.66L48.99-1.66 58.56-29.57Q58.91-30.49 61.03-30.49L61.03-30.49 63.28-30.49Q65.4-30.49 65.74-29.57L65.74-29.57 75.31-1.66Q75.43-1.17 75.43-0.88L75.43-0.88Q75.43-0.39 74.91-0.16 74.38 0.07 73.26 0.07L73.26 0.07 71.36 0.07Q70.33 0.07 69.71-0.13 69.09-0.34 68.94-0.83L68.94-0.83 67.18-6.13 56.95-6.13 55.2-0.83Q54.93 0.07 53.19 0.07L53.19 0.07 51.48 0.07ZM58.81-11.87L65.33-11.87 62.86-19.58Q62.64-20.17 62.48-20.92 62.32-21.68 62.2-22.36L62.2-22.36 62.03-22.36 61.93-21.83Q61.69-20.39 61.37-19.58L61.37-19.58 58.81-11.87ZM91.67 0.37Q84.34 0.37 80.86-3.44 77.39-7.25 77.39-15.28L77.39-15.28Q77.39-30.74 91.89-30.74L91.89-30.74Q93.86-30.74 96.05-30.35 98.23-29.96 99.7-29.26 101.16-28.56 101.16-27.71L101.16-27.71Q101.16-27.1 100.68-26.11 100.19-25.12 99.53-24.37 98.87-23.61 98.36-23.61L98.36-23.61Q98.21-23.61 97.65-23.85L97.65-23.85Q96.43-24.34 95.09-24.67 93.74-25 91.76-25L91.76-25Q87.93-25 86.09-22.57 84.25-20.14 84.25-15.23L84.25-15.23Q84.25-10.33 86.1-7.84 87.96-5.35 91.67-5.35L91.67-5.35Q93.55-5.35 95.06-5.66L95.06-5.66 95.06-11.16 91.23-11.16Q90.54-11.16 90.24-11.67 89.93-12.18 89.93-13.33L89.93-13.33 89.93-14.72Q89.93-15.84 90.24-16.36 90.54-16.87 91.23-16.87L91.23-16.87 100.04-16.87Q100.97-16.87 101.38-16.47 101.8-16.06 101.8-15.16L101.8-15.16 101.8-3.08Q101.8-1.12 98.53-0.38 95.26 0.37 91.67 0.37L91.67 0.37ZM120.47 0.37Q116.03 0.37 112.92-1.44 109.8-3.25 108.18-6.73 106.56-10.21 106.56-15.21L106.56-15.21Q106.56-20.19 108.18-23.67 109.8-27.15 112.92-28.94 116.03-30.74 120.47-30.74L120.47-30.74Q124.94-30.74 128.05-28.94 131.17-27.15 132.78-23.67 134.39-20.19 134.39-15.21L134.39-15.21Q134.39-10.21 132.78-6.73 131.17-3.25 128.05-1.44 124.94 0.37 120.47 0.37L120.47 0.37ZM120.47-5.35Q123.96-5.35 125.75-7.87 127.53-10.4 127.53-15.21L127.53-15.21Q127.53-20.02 125.75-22.51 123.96-25 120.47-25L120.47-25Q117.01-25 115.21-22.5 113.42-20 113.42-15.21L113.42-15.21Q113.42-10.4 115.22-7.87 117.03-5.35 120.47-5.35L120.47-5.35ZM141.96 0.07Q139.34 0.07 139.34-1.29L139.34-1.29 139.34-28.66Q139.34-29.57 139.76-29.97 140.17-30.37 141.08-30.37L141.08-30.37 149.55-30.37Q160.34-30.37 160.34-22.24L160.34-22.24Q160.34-19.78 158.96-17.99 157.58-16.21 155.26-15.33L155.26-15.33 155.26-15.16Q156.07-14.82 156.96-13.7 157.85-12.57 158.39-11.16L158.39-11.16 162.22-1.61Q162.41-1.03 162.41-0.78L162.41-0.78Q162.41 0.07 159.83 0.07L159.83 0.07 158.04 0.07Q155.87 0.07 155.53-0.83L155.53-0.83 152.09-9.3Q151.6-10.28 151.15-10.82 150.7-11.35 149.89-11.63 149.08-11.91 147.72-11.91L147.72-11.91 146.03-11.91 146.03-1.29Q146.03 0.07 143.42 0.07L143.42 0.07 141.96 0.07ZM146.03-17.68L150.13-17.68Q151.01-17.68 151.79-18.18 152.58-18.68 153.04-19.53 153.5-20.39 153.5-21.41L153.5-21.41Q153.5-22.92 152.51-23.82 151.53-24.71 149.84-24.71L149.84-24.71 146.03-24.71 146.03-17.68ZM168.17 0.12Q166.86 0.12 166.21-0.24 165.56-0.61 165.56-1.29L165.56-1.29 165.56-29.08Q165.56-30.52 168.17-30.52L168.17-30.52 169.69-30.52Q171.03-30.52 171.65-30.15 172.28-29.79 172.28-29.08L172.28-29.08 172.28-1.29Q172.28 0.12 169.69 0.12L169.69 0.12 168.17 0.12ZM177.74 0.07Q175.08 0.07 175.08-0.88L175.08-0.88Q175.08-1.15 175.25-1.66L175.25-1.66 184.82-29.57Q185.16-30.49 187.29-30.49L187.29-30.49 189.53-30.49Q191.66-30.49 192-29.57L192-29.57 201.57-1.66Q201.69-1.17 201.69-0.88L201.69-0.88Q201.69-0.39 201.17-0.16 200.64 0.07 199.52 0.07L199.52 0.07 197.61 0.07Q196.59 0.07 195.97-0.13 195.34-0.34 195.2-0.83L195.2-0.83 193.44-6.13 183.21-6.13 181.45-0.83Q181.18 0.07 179.45 0.07L179.45 0.07 177.74 0.07ZM185.07-11.87L191.58-11.87 189.12-19.58Q188.9-20.17 188.74-20.92 188.58-21.68 188.46-22.36L188.46-22.36 188.29-22.36 188.19-21.83Q187.95-20.39 187.63-19.58L187.63-19.58 185.07-11.87ZM206.43 0Q205.52 0 205.11-0.42 204.69-0.83 204.69-1.73L204.69-1.73 204.69-29.08Q204.69-29.79 205.33-30.14 205.96-30.49 207.3-30.49L207.3-30.49 208.77-30.49Q210.11-30.49 210.75-30.14 211.38-29.79 211.38-29.08L211.38-29.08 211.38-5.69 221.05-5.69Q221.73-5.69 222.04-5.18 222.34-4.66 222.34-3.54L222.34-3.54 222.34-2.17Q222.34-1.03 222.04-0.51 221.73 0 221.05 0L221.05 0 206.43 0Z" fill="#000000" data-fill-palette-color="primary"></path></g></svg></g></svg></g><g transform="matrix(1,0,0,1,163.310208,69.2362606834682)"><svg viewBox="0 0 232.209792 12.357789558555728" height="12.357789558555728" width="232.209792"><g transform="matrix(1,0,0,1,0,0)"><svg width="232.209792" viewBox="1.5 -37 955.4199829101562 50.849998474121094" height="12.357789558555728" data-palette-color="#4d331f"><path d="M1.5-17.75Q1.5-23 3.63-27.1 5.75-31.2 9.7-33.48 13.65-35.75 19-35.75L19-35.75Q23.6-35.75 27.23-34.02 30.85-32.3 33.13-29.15 35.4-26 36.15-21.8L36.15-21.8 24.45-21.8Q23.65-23.55 22.18-24.53 20.7-25.5 18.8-25.5L18.8-25.5Q16-25.5 14.38-23.4 12.75-21.3 12.75-17.75L12.75-17.75Q12.75-14.2 14.38-12.1 16-10 18.8-10L18.8-10Q20.7-10 22.18-10.98 23.65-11.95 24.45-13.7L24.45-13.7 36.15-13.7Q35.4-9.5 33.13-6.35 30.85-3.2 27.23-1.48 23.6 0.25 19 0.25L19 0.25Q13.65 0.25 9.7-2.02 5.75-4.3 3.63-8.4 1.5-12.5 1.5-17.75L1.5-17.75ZM51.25-23Q52.95-25.45 55.4-26.93 57.85-28.4 60.5-28.4L60.5-28.4 60.5-16.55 57.35-16.55Q54.2-16.55 52.72-15.45 51.25-14.35 51.25-11.55L51.25-11.55 51.25 0 40.15 0 40.15-28.2 51.25-28.2 51.25-23ZM90.8-14.35Q90.8-13.2 90.65-12.15L90.65-12.15 72.8-12.15Q73.05-8.5 75.84-8.5L75.84-8.5Q77.65-8.5 78.45-10.15L78.45-10.15 90.2-10.15Q89.59-7.15 87.67-4.78 85.75-2.4 82.82-1.03 79.9 0.35 76.4 0.35L76.4 0.35Q72.2 0.35 68.92-1.4 65.65-3.15 63.82-6.43 62-9.7 62-14.1L62-14.1Q62-18.5 63.82-21.78 65.65-25.05 68.92-26.8 72.2-28.55 76.4-28.55L76.4-28.55Q80.59-28.55 83.87-26.83 87.15-25.1 88.97-21.9 90.8-18.7 90.8-14.35L90.8-14.35ZM72.95-17L79.55-17Q79.55-18.4 78.65-19.13 77.75-19.85 76.4-19.85L76.4-19.85Q73.45-19.85 72.95-17L72.95-17ZM92.79-14.1Q92.79-18.55 94.32-21.83 95.84-25.1 98.49-26.83 101.14-28.55 104.44-28.55L104.44-28.55Q107.19-28.55 109.19-27.43 111.19-26.3 112.24-24.35L112.24-24.35 112.24-28.2 123.29-28.2 123.29 0 112.24 0 112.24-3.85Q111.19-1.9 109.19-0.78 107.19 0.35 104.44 0.35L104.44 0.35Q101.14 0.35 98.49-1.38 95.84-3.1 94.32-6.38 92.79-9.65 92.79-14.1L92.79-14.1ZM112.24-14.1Q112.24-16.35 111.09-17.6 109.94-18.85 108.14-18.85L108.14-18.85Q106.34-18.85 105.19-17.6 104.04-16.35 104.04-14.1L104.04-14.1Q104.04-11.85 105.19-10.6 106.34-9.35 108.14-9.35L108.14-9.35Q109.94-9.35 111.09-10.6 112.24-11.85 112.24-14.1L112.24-14.1ZM143.19-9.45L145.84-9.45 145.84 0 141.64 0Q130.04 0 130.04-11.55L130.04-11.55 130.04-18.95 126.54-18.95 126.54-28.2 130.04-28.2 130.04-35 141.14-35 141.14-28.2 145.74-28.2 145.74-18.95 141.14-18.95 141.14-11.35Q141.14-10.35 141.62-9.9 142.09-9.45 143.19-9.45L143.19-9.45ZM177.39-14.35Q177.39-13.2 177.24-12.15L177.24-12.15 159.39-12.15Q159.64-8.5 162.44-8.5L162.44-8.5Q164.24-8.5 165.04-10.15L165.04-10.15 176.79-10.15Q176.19-7.15 174.26-4.78 172.34-2.4 169.41-1.03 166.49 0.35 162.99 0.35L162.99 0.35Q158.79 0.35 155.51-1.4 152.24-3.15 150.41-6.43 148.59-9.7 148.59-14.1L148.59-14.1Q148.59-18.5 150.41-21.78 152.24-25.05 155.51-26.8 158.79-28.55 162.99-28.55L162.99-28.55Q167.19-28.55 170.46-26.83 173.74-25.1 175.56-21.9 177.39-18.7 177.39-14.35L177.39-14.35ZM159.54-17L166.14-17Q166.14-18.4 165.24-19.13 164.34-19.85 162.99-19.85L162.99-19.85Q160.04-19.85 159.54-17L159.54-17ZM208.98-28.2L221.23-28.2 203.18 13.5 191.03 13.5 198.13-1.4 186.38-28.2 198.73-28.2 204.03-13.9 208.98-28.2ZM236.63 0.35Q232.38 0.35 228.98-1.4 225.58-3.15 223.66-6.43 221.73-9.7 221.73-14.1L221.73-14.1Q221.73-18.5 223.66-21.78 225.58-25.05 228.98-26.8 232.38-28.55 236.63-28.55L236.63-28.55Q240.88-28.55 244.28-26.8 247.68-25.05 249.61-21.78 251.53-18.5 251.53-14.1L251.53-14.1Q251.53-9.7 249.61-6.43 247.68-3.15 244.28-1.4 240.88 0.35 236.63 0.35L236.63 0.35ZM236.63-9.25Q238.18-9.25 239.23-10.48 240.28-11.7 240.28-14.1L240.28-14.1Q240.28-16.5 239.23-17.73 238.18-18.95 236.63-18.95L236.63-18.95Q235.08-18.95 234.03-17.73 232.98-16.5 232.98-14.1L232.98-14.1Q232.98-11.7 234.01-10.48 235.03-9.25 236.63-9.25L236.63-9.25ZM273.78-28.2L284.88-28.2 284.88 0 273.78 0 273.78-4.3Q272.48-2.3 270.3-1.05 268.13 0.2 265.13 0.2L265.13 0.2Q260.28 0.2 257.55-3.05 254.83-6.3 254.83-11.85L254.83-11.85 254.83-28.2 265.88-28.2 265.88-13.25Q265.88-11.25 266.95-10.08 268.03-8.9 269.83-8.9L269.83-8.9Q271.68-8.9 272.73-10.08 273.78-11.25 273.78-13.25L273.78-13.25 273.78-28.2ZM300.98-23Q302.68-25.45 305.13-26.93 307.58-28.4 310.23-28.4L310.23-28.4 310.23-16.55 307.08-16.55Q303.93-16.55 302.45-15.45 300.98-14.35 300.98-11.55L300.98-11.55 300.98 0 289.88 0 289.88-28.2 300.98-28.2 300.98-23ZM335.12 0.35Q330.87 0.35 327.47-1.4 324.07-3.15 322.15-6.43 320.22-9.7 320.22-14.1L320.22-14.1Q320.22-18.5 322.15-21.78 324.07-25.05 327.47-26.8 330.87-28.55 335.12-28.55L335.12-28.55Q339.37-28.55 342.77-26.8 346.17-25.05 348.1-21.78 350.02-18.5 350.02-14.1L350.02-14.1Q350.02-9.7 348.1-6.43 346.17-3.15 342.77-1.4 339.37 0.35 335.12 0.35L335.12 0.35ZM335.12-9.25Q336.67-9.25 337.72-10.48 338.77-11.7 338.77-14.1L338.77-14.1Q338.77-16.5 337.72-17.73 336.67-18.95 335.12-18.95L335.12-18.95Q333.57-18.95 332.52-17.73 331.47-16.5 331.47-14.1L331.47-14.1Q331.47-11.7 332.5-10.48 333.52-9.25 335.12-9.25L335.12-9.25ZM386.07-28.2L396.32-28.2 389.62 0 377.12 0 373.72-15.9 370.12 0 357.62 0 350.97-28.2 361.97-28.2 364.32-11.05 367.97-28.2 379.82-28.2 383.67-10.85 386.07-28.2ZM418.42-28.4Q423.27-28.4 425.99-25.15 428.72-21.9 428.72-16.35L428.72-16.35 428.72 0 417.67 0 417.67-14.95Q417.67-16.95 416.59-18.13 415.52-19.3 413.72-19.3L413.72-19.3Q411.87-19.3 410.82-18.13 409.77-16.95 409.77-14.95L409.77-14.95 409.77 0 398.67 0 398.67-28.2 409.77-28.2 409.77-23.9Q411.07-25.9 413.24-27.15 415.42-28.4 418.42-28.4L418.42-28.4ZM466.46 0L464.71-5.35 452.91-5.35 451.16 0 439.51 0 452.46-35.4 465.26-35.4 478.16 0 466.46 0ZM455.61-13.7L462.01-13.7 458.81-23.55 455.61-13.7ZM480.66-35.4L491.76-35.4 491.76 0 480.66 0 480.66-35.4ZM538.65-23.3L526.95-23.3Q526.3-24.35 525.1-24.93 523.9-25.5 522.2-25.5L522.2-25.5Q519-25.5 517.25-23.43 515.5-21.35 515.5-17.75L515.5-17.75Q515.5-13.6 517.45-11.55 519.4-9.5 523.45-9.5L523.45-9.5Q527.3-9.5 529.65-12.6L529.65-12.6 520.8-12.6 520.8-20.45 538.85-20.45 538.85-9.35Q536.55-5.4 532.5-2.58 528.45 0.25 522.25 0.25L522.25 0.25Q516.75 0.25 512.68-2.02 508.6-4.3 506.43-8.4 504.25-12.5 504.25-17.75L504.25-17.75Q504.25-23 506.43-27.1 508.6-31.2 512.65-33.48 516.7-35.75 522.15-35.75L522.15-35.75Q529.1-35.75 533.48-32.4 537.85-29.05 538.65-23.3L538.65-23.3ZM570.15-14.35Q570.15-13.2 570-12.15L570-12.15 552.15-12.15Q552.4-8.5 555.2-8.5L555.2-8.5Q557-8.5 557.8-10.15L557.8-10.15 569.55-10.15Q568.95-7.15 567.03-4.78 565.1-2.4 562.18-1.03 559.25 0.35 555.75 0.35L555.75 0.35Q551.55 0.35 548.28-1.4 545-3.15 543.18-6.43 541.35-9.7 541.35-14.1L541.35-14.1Q541.35-18.5 543.18-21.78 545-25.05 548.28-26.8 551.55-28.55 555.75-28.55L555.75-28.55Q559.95-28.55 563.23-26.83 566.5-25.1 568.33-21.9 570.15-18.7 570.15-14.35L570.15-14.35ZM552.3-17L558.9-17Q558.9-18.4 558-19.13 557.1-19.85 555.75-19.85L555.75-19.85Q552.8-19.85 552.3-17L552.3-17ZM593.4-28.4Q598.25-28.4 600.97-25.15 603.7-21.9 603.7-16.35L603.7-16.35 603.7 0 592.65 0 592.65-14.95Q592.65-16.95 591.57-18.13 590.5-19.3 588.7-19.3L588.7-19.3Q586.85-19.3 585.8-18.13 584.75-16.95 584.75-14.95L584.75-14.95 584.75 0 573.65 0 573.65-28.2 584.75-28.2 584.75-23.9Q586.05-25.9 588.22-27.15 590.4-28.4 593.4-28.4L593.4-28.4ZM635.79-14.35Q635.79-13.2 635.64-12.15L635.64-12.15 617.79-12.15Q618.04-8.5 620.85-8.5L620.85-8.5Q622.64-8.5 623.45-10.15L623.45-10.15 635.2-10.15Q634.6-7.15 632.67-4.78 630.75-2.4 627.82-1.03 624.89 0.35 621.39 0.35L621.39 0.35Q617.2 0.35 613.92-1.4 610.64-3.15 608.82-6.43 607-9.7 607-14.1L607-14.1Q607-18.5 608.82-21.78 610.64-25.05 613.92-26.8 617.2-28.55 621.39-28.55L621.39-28.55Q625.6-28.55 628.87-26.83 632.14-25.1 633.97-21.9 635.79-18.7 635.79-14.35L635.79-14.35ZM617.95-17L624.54-17Q624.54-18.4 623.64-19.13 622.75-19.85 621.39-19.85L621.39-19.85Q618.45-19.85 617.95-17L617.95-17ZM650.39-23Q652.09-25.45 654.54-26.93 656.99-28.4 659.64-28.4L659.64-28.4 659.64-16.55 656.49-16.55Q653.34-16.55 651.87-15.45 650.39-14.35 650.39-11.55L650.39-11.55 650.39 0 639.29 0 639.29-28.2 650.39-28.2 650.39-23ZM661.14-14.1Q661.14-18.55 662.66-21.83 664.19-25.1 666.84-26.83 669.49-28.55 672.79-28.55L672.79-28.55Q675.54-28.55 677.54-27.43 679.54-26.3 680.59-24.35L680.59-24.35 680.59-28.2 691.64-28.2 691.64 0 680.59 0 680.59-3.85Q679.54-1.9 677.54-0.78 675.54 0.35 672.79 0.35L672.79 0.35Q669.49 0.35 666.84-1.38 664.19-3.1 662.66-6.38 661.14-9.65 661.14-14.1L661.14-14.1ZM680.59-14.1Q680.59-16.35 679.44-17.6 678.29-18.85 676.49-18.85L676.49-18.85Q674.69-18.85 673.54-17.6 672.39-16.35 672.39-14.1L672.39-14.1Q672.39-11.85 673.54-10.6 674.69-9.35 676.49-9.35L676.49-9.35Q678.29-9.35 679.44-10.6 680.59-11.85 680.59-14.1L680.59-14.1ZM711.54-9.45L714.19-9.45 714.19 0 709.99 0Q698.39 0 698.39-11.55L698.39-11.55 698.39-18.95 694.89-18.95 694.89-28.2 698.39-28.2 698.39-35 709.49-35 709.49-28.2 714.09-28.2 714.09-18.95 709.49-18.95 709.49-11.35Q709.49-10.35 709.96-9.9 710.44-9.45 711.54-9.45L711.54-9.45ZM745.73-14.35Q745.73-13.2 745.58-12.15L745.58-12.15 727.73-12.15Q727.98-8.5 730.78-8.5L730.78-8.5Q732.58-8.5 733.38-10.15L733.38-10.15 745.13-10.15Q744.53-7.15 742.61-4.78 740.68-2.4 737.76-1.03 734.83 0.35 731.33 0.35L731.33 0.35Q727.13 0.35 723.86-1.4 720.58-3.15 718.76-6.43 716.93-9.7 716.93-14.1L716.93-14.1Q716.93-18.5 718.76-21.78 720.58-25.05 723.86-26.8 727.13-28.55 731.33-28.55L731.33-28.55Q735.53-28.55 738.81-26.83 742.08-25.1 743.91-21.9 745.73-18.7 745.73-14.35L745.73-14.35ZM727.88-17L734.48-17Q734.48-18.4 733.58-19.13 732.68-19.85 731.33-19.85L731.33-19.85Q728.38-19.85 727.88-17L727.88-17ZM747.73-14.1Q747.73-18.55 749.26-21.83 750.78-25.1 753.43-26.83 756.08-28.55 759.38-28.55L759.38-28.55Q762.13-28.55 764.11-27.43 766.08-26.3 767.13-24.35L767.13-24.35 767.13-37 778.23-37 778.23 0 767.13 0 767.13-3.85Q766.08-1.9 764.11-0.78 762.13 0.35 759.38 0.35L759.38 0.35Q756.08 0.35 753.43-1.38 750.78-3.1 749.26-6.38 747.73-9.65 747.73-14.1L747.73-14.1ZM767.18-14.1Q767.18-16.35 766.03-17.6 764.88-18.85 763.08-18.85L763.08-18.85Q761.28-18.85 760.13-17.6 758.98-16.35 758.98-14.1L758.98-14.1Q758.98-11.85 760.13-10.6 761.28-9.35 763.08-9.35L763.08-9.35Q764.88-9.35 766.03-10.6 767.18-11.85 767.18-14.1L767.18-14.1ZM791.73-35.4L802.83-35.4 802.83 0 791.73 0 791.73-35.4ZM845.47-28.4Q850.87-28.4 853.85-25.15 856.82-21.9 856.82-16.35L856.82-16.35 856.82 0 845.77 0 845.77-14.95Q845.77-16.75 844.7-17.78 843.62-18.8 841.82-18.8L841.82-18.8Q839.97-18.8 838.92-17.78 837.87-16.75 837.87-14.95L837.87-14.95 837.87 0 826.82 0 826.82-14.95Q826.82-16.75 825.75-17.78 824.67-18.8 822.87-18.8L822.87-18.8Q821.02-18.8 819.97-17.78 818.92-16.75 818.92-14.95L818.92-14.95 818.92 0 807.82 0 807.82-28.2 818.92-28.2 818.92-24.4Q820.12-26.2 822.2-27.3 824.27-28.4 827.07-28.4L827.07-28.4Q830.12-28.4 832.47-27.08 834.82-25.75 836.22-23.35L836.22-23.35Q837.77-25.55 840.17-26.98 842.57-28.4 845.47-28.4L845.47-28.4ZM860.12-14.1Q860.12-18.55 861.65-21.83 863.17-25.1 865.82-26.83 868.47-28.55 871.77-28.55L871.77-28.55Q874.52-28.55 876.52-27.43 878.52-26.3 879.57-24.35L879.57-24.35 879.57-28.2 890.62-28.2 890.62 0 879.57 0 879.57-3.85Q878.52-1.9 876.52-0.78 874.52 0.35 871.77 0.35L871.77 0.35Q868.47 0.35 865.82-1.38 863.17-3.1 861.65-6.38 860.12-9.65 860.12-14.1L860.12-14.1ZM879.57-14.1Q879.57-16.35 878.42-17.6 877.27-18.85 875.47-18.85L875.47-18.85Q873.67-18.85 872.52-17.6 871.37-16.35 871.37-14.1L871.37-14.1Q871.37-11.85 872.52-10.6 873.67-9.35 875.47-9.35L875.47-9.35Q877.27-9.35 878.42-10.6 879.57-11.85 879.57-14.1L879.57-14.1ZM905.77-28.55Q908.52-28.55 910.52-27.43 912.52-26.3 913.57-24.35L913.57-24.35 913.57-28.2 924.62-28.2 924.62-0.5Q924.62 3.45 923.17 6.7 921.72 9.95 918.49 11.9 915.27 13.85 910.22 13.85L910.22 13.85Q903.42 13.85 899.44 10.68 895.47 7.5 894.92 2.05L894.92 2.05 905.82 2.05Q906.27 4.25 909.42 4.25L909.42 4.25Q911.37 4.25 912.47 3.25 913.57 2.25 913.57-0.5L913.57-0.5 913.57-3.85Q912.52-1.9 910.52-0.78 908.52 0.35 905.77 0.35L905.77 0.35Q902.47 0.35 899.82-1.38 897.17-3.1 895.64-6.38 894.12-9.65 894.12-14.1L894.12-14.1Q894.12-18.55 895.64-21.83 897.17-25.1 899.82-26.83 902.47-28.55 905.77-28.55L905.77-28.55ZM913.57-14.1Q913.57-16.35 912.42-17.6 911.27-18.85 909.47-18.85L909.47-18.85Q907.67-18.85 906.52-17.6 905.37-16.35 905.37-14.1L905.37-14.1Q905.37-11.85 906.52-10.6 907.67-9.35 909.47-9.35L909.47-9.35Q911.27-9.35 912.42-10.6 913.57-11.85 913.57-14.1L913.57-14.1ZM956.92-14.35Q956.92-13.2 956.77-12.15L956.77-12.15 938.92-12.15Q939.17-8.5 941.97-8.5L941.97-8.5Q943.77-8.5 944.57-10.15L944.57-10.15 956.32-10.15Q955.72-7.15 953.79-4.78 951.87-2.4 948.94-1.03 946.02 0.35 942.52 0.35L942.52 0.35Q938.32 0.35 935.04-1.4 931.77-3.15 929.94-6.43 928.12-9.7 928.12-14.1L928.12-14.1Q928.12-18.5 929.94-21.78 931.77-25.05 935.04-26.8 938.32-28.55 942.52-28.55L942.52-28.55Q946.72-28.55 949.99-26.83 953.27-25.1 955.09-21.9 956.92-18.7 956.92-14.35L956.92-14.35ZM939.07-17L945.67-17Q945.67-18.4 944.77-19.13 943.87-19.85 942.52-19.85L942.52-19.85Q939.57-19.85 939.07-17L939.07-17Z" opacity="1" transform="matrix(1,0,0,1,0,0)" fill="#000000" class="undefined-text-1" data-fill-palette-color="secondary" id="text-1"></path></svg></g></svg></g></svg></g></svg></g><g transform="matrix(1,0,0,1,408.74331270658956,0)"><svg viewBox="0 0 112.75743713784274 112.76297743447708" height="112.76297743447708" width="112.75743713784274"><g><svg xmlns="http://www.w3.org/2000/svg" xmlns:xlink="http://www.w3.org/1999/xlink" version="1.1" x="0" y="0" viewBox="0.3583327531814575 0.3587183356285095 89.28327178955078 89.28765869140625" enable-background="new 0 0 90 90" xml:space="preserve" height="112.76297743447708" width="112.75743713784274" class="icon-icon-0" data-fill-palette-color="accent" id="icon-0"><polygon points="57.928,58.169 57.875,76.027 45.397,63.548 45.397,45.639 " fill="#000000" data-fill-palette-color="accent"></polygon><polygon points="76.027,57.875 58.475,57.927 45.826,45.279 63.432,45.279 " fill="#000000" data-fill-palette-color="accent"></polygon><polygon points="76.027,32.125 63.432,44.721 45.707,44.721 58.355,32.073 " fill="#000000" data-fill-palette-color="accent"></polygon><polygon points="44.838,45.59 44.838,63.314 32.125,76.027 32.074,58.355 " fill="#000000" data-fill-palette-color="accent"></polygon><polygon points="57.928,31.712 45.397,44.243 45.397,26.452 57.875,13.974 " fill="#000000" data-fill-palette-color="accent"></polygon><polygon points="44.838,26.687 44.838,44.291 32.074,31.526 32.125,13.974 " fill="#000000" data-fill-palette-color="accent"></polygon><polygon points="44.479,44.721 26.569,44.721 13.974,32.125 31.832,32.073 " fill="#000000" data-fill-palette-color="accent"></polygon><polygon points="44.36,45.279 31.712,57.927 13.974,57.875 26.569,45.279 " fill="#000000" data-fill-palette-color="accent"></polygon><rect x="58.48" y="58.48" width="18.049" height="18.049" fill="#000000" data-fill-palette-color="accent"></rect><polygon points="76.527,13.474 76.527,31.516 58.914,31.516 58.912,31.518 58.484,31.516 58.484,13.474 " fill="#000000" data-fill-palette-color="accent"></polygon><polygon points="31.518,30.971 31.516,31.516 13.474,31.516 13.474,13.474 31.516,13.474 31.516,30.968 " fill="#000000" data-fill-palette-color="accent"></polygon><rect x="13.471" y="58.48" width="18.05" height="18.049" fill="#000000" data-fill-palette-color="accent"></rect><rect x="67.864" y="35.981" transform="matrix(0.7071 -0.7071 0.7071 0.7071 -9.3022 67.5465)" width="18.042" height="18.042" fill="#000000" data-fill-palette-color="accent"></rect><rect x="35.979" y="4.094" transform="matrix(0.7071 -0.7071 0.7071 0.7071 3.9068 35.6621)" width="18.042" height="18.042" fill="#000000" data-fill-palette-color="accent"></rect><rect x="4.095" y="35.98" transform="matrix(0.7071 -0.7071 0.7071 0.7071 -27.9787 22.4536)" width="18.041" height="18.041" fill="#000000" data-fill-palette-color="accent"></rect><rect x="35.98" y="67.865" transform="matrix(0.7071 -0.7071 0.7071 0.7071 -41.1877 54.3437)" width="18.04" height="18.041" fill="#000000" data-fill-palette-color="accent"></rect></svg></g></svg></g></svg></g><defs></defs></svg><rect width="395.52" height="85.52243280223259" fill="none" stroke="none" visibility="hidden"></rect></g></svg></g></svg>